<svg width="16" height="16" viewBox="0 0 16 16" fill="none" xmlns="http://www.w3.org/2000/svg">
<path d="M10.667 4C10.667 2.52724 9.47305 1.33333 8.00029 1.33333C6.52753 1.33333 5.33362 2.52724 5.33362 4M2.39496 6.90131L1.99496 11.168C1.88122 12.3811 1.82436 12.9877 2.02565 13.4562C2.20249 13.8678 2.51237 14.208 2.90563 14.4225C3.3533 14.6667 3.96253 14.6667 5.18099 14.6667H10.8196C12.038 14.6667 12.6473 14.6667 13.0949 14.4225C13.4882 14.208 13.7981 13.8678 13.9749 13.4562C14.1762 12.9877 14.1193 12.3811 14.0056 11.168L13.6056 6.90131C13.5096 5.8769 13.4616 5.36469 13.2312 4.97744C13.0283 4.63639 12.7285 4.36341 12.37 4.19323C11.9629 4 11.4485 4 10.4196 4L5.58099 4C4.55208 4 4.03763 4 3.63057 4.19323C3.27206 4.3634 2.97229 4.63639 2.76939 4.97744C2.53901 5.36469 2.49099 5.8769 2.39496 6.90131Z" stroke="black" stroke-linecap="round" stroke-linejoin="round"/>
</svg>
