<svg width="170" height="30" viewBox="0 0 170 30" fill="none" xmlns="http://www.w3.org/2000/svg">
<path d="M2.92047 19.1424C2.92047 17.1392 3.29316 15.3806 4.03854 13.8665C4.80722 12.3525 5.84376 11.1878 7.14818 10.3725C8.4526 9.55729 9.90842 9.14966 11.5157 9.14966C12.7968 9.14966 13.9614 9.41753 15.0096 9.95327C16.0811 10.489 16.9197 11.2111 17.5253 12.1195V3.07014H23.5V28.9256H17.5253V26.1304C16.9663 27.0621 16.1626 27.8075 15.1144 28.3665C14.0895 28.9256 12.8899 29.2051 11.5157 29.2051C9.90842 29.2051 8.4526 28.7974 7.14818 27.9822C5.84376 27.1436 4.80722 25.9673 4.03854 24.4533C3.29316 22.9159 2.92047 21.1456 2.92047 19.1424ZM17.5253 19.1774C17.5253 17.6866 17.106 16.5103 16.2675 15.6485C15.4522 14.7866 14.4506 14.3557 13.2626 14.3557C12.0747 14.3557 11.0614 14.7866 10.2229 15.6485C9.40762 16.487 8.99999 17.6517 8.99999 19.1424C8.99999 20.6332 9.40762 21.8211 10.2229 22.7063C11.0614 23.5681 12.0747 23.9991 13.2626 23.9991C14.4506 23.9991 15.4522 23.5681 16.2675 22.7063C17.106 21.8444 17.5253 20.6681 17.5253 19.1774Z" fill="black"/>
<path d="M29.736 7.40267C28.6878 7.40267 27.826 7.09986 27.1505 6.49423C26.4983 5.86532 26.1722 5.09664 26.1722 4.18821C26.1722 3.25648 26.4983 2.48781 27.1505 1.88219C27.826 1.25327 28.6878 0.938812 29.736 0.938812C30.7609 0.938812 31.5995 1.25327 32.2517 1.88219C32.9272 2.48781 33.265 3.25648 33.265 4.18821C33.265 5.09664 32.9272 5.86532 32.2517 6.49423C31.5995 7.09986 30.7609 7.40267 29.736 7.40267ZM32.7059 9.42917V28.9256H26.7312V9.42917H32.7059Z" fill="black"/>
<path d="M45.2723 23.3352L49.5 9.42917H55.859L48.941 28.9256H41.5687L34.6506 9.42917H41.0446L45.2723 23.3352Z" fill="black"/>
<path d="M57.1205 29.2051C56.0723 29.2051 55.2105 28.9023 54.535 28.2966C53.8828 27.6677 53.5567 26.8991 53.5567 25.9906C53.5567 25.0589 53.8828 24.2786 54.535 23.6497C55.2105 23.0207 56.0723 22.7063 57.1205 22.7063C58.1454 22.7063 58.984 23.0207 59.6362 23.6497C60.3117 24.2786 60.6495 25.0589 60.6495 25.9906C60.6495 26.8991 60.3117 27.6677 59.6362 28.2966C58.984 28.9023 58.1454 29.2051 57.1205 29.2051Z" fill="#3300FF"/>
<path d="M87.3164 9.21954C89.7389 9.21954 91.6606 9.95327 93.0815 11.4207C94.5256 12.8882 95.2477 14.9264 95.2477 17.5352V28.9256H89.308V18.3388C89.308 17.081 88.9702 16.1143 88.2947 15.4388C87.6425 14.74 86.7341 14.3906 85.5694 14.3906C84.4048 14.3906 83.4847 14.74 82.8092 15.4388C82.157 16.1143 81.8309 17.081 81.8309 18.3388V28.9256H75.8911V18.3388C75.8911 17.081 75.5534 16.1143 74.8779 15.4388C74.2256 14.74 73.3172 14.3906 72.1525 14.3906C70.9879 14.3906 70.0678 14.74 69.3923 15.4388C68.7401 16.1143 68.414 17.081 68.414 18.3388V28.9256H62.4393V9.42917H68.414V11.875C69.0196 11.0597 69.8116 10.4191 70.7899 9.95327C71.7682 9.46412 72.8746 9.21954 74.1092 9.21954C75.5766 9.21954 76.8811 9.53399 78.0224 10.1629C79.1871 10.7918 80.0955 11.6886 80.7477 12.8533C81.4232 11.7818 82.3433 10.9083 83.508 10.2328C84.6726 9.55729 85.9421 9.21954 87.3164 9.21954Z" fill="#3300FF"/>
<path d="M116.058 18.8629C116.058 19.4219 116.023 20.0043 115.953 20.6099H102.431C102.524 21.8211 102.909 22.7529 103.584 23.4051C104.283 24.034 105.133 24.3484 106.135 24.3484C107.626 24.3484 108.662 23.7195 109.244 22.4617H115.603C115.277 23.7428 114.683 24.8958 113.821 25.9207C112.983 26.9456 111.923 27.7493 110.642 28.3316C109.361 28.9139 107.928 29.2051 106.344 29.2051C104.434 29.2051 102.734 28.7974 101.243 27.9822C99.7524 27.1669 98.5878 26.0023 97.7492 24.4882C96.9106 22.9742 96.4914 21.2039 96.4914 19.1774C96.4914 17.1509 96.899 15.3806 97.7143 13.8665C98.5528 12.3525 99.7175 11.1878 101.208 10.3725C102.699 9.55729 104.411 9.14966 106.344 9.14966C108.231 9.14966 109.908 9.54564 111.376 10.3376C112.843 11.1296 113.985 12.2593 114.8 13.7268C115.638 15.1942 116.058 16.9063 116.058 18.8629ZM109.943 17.2906C109.943 16.2657 109.594 15.4505 108.895 14.8448C108.196 14.2392 107.323 13.9364 106.275 13.9364C105.273 13.9364 104.423 14.2276 103.724 14.8099C103.048 15.3922 102.629 16.2191 102.466 17.2906H109.943Z" fill="#3300FF"/>
<path d="M123.437 12.6786C124.136 11.6071 125.01 10.7685 126.058 10.1629C127.106 9.53399 128.271 9.21954 129.552 9.21954V15.5436H127.91C126.419 15.5436 125.301 15.8697 124.555 16.5219C123.81 17.1509 123.437 18.2689 123.437 19.8762V28.9256H117.463V9.42917H123.437V12.6786Z" fill="#3300FF"/>
<path d="M129.473 19.1774C129.473 17.1509 129.88 15.3806 130.695 13.8665C131.534 12.3525 132.687 11.1878 134.155 10.3725C135.645 9.55729 137.346 9.14966 139.256 9.14966C141.701 9.14966 143.74 9.79022 145.37 11.0713C147.024 12.3525 148.107 14.1577 148.62 16.487H142.261C141.725 14.9962 140.688 14.2509 139.151 14.2509C138.056 14.2509 137.183 14.6818 136.53 15.5436C135.878 16.3822 135.552 17.5934 135.552 19.1774C135.552 20.7613 135.878 21.9842 136.53 22.846C137.183 23.6846 138.056 24.1039 139.151 24.1039C140.688 24.1039 141.725 23.3585 142.261 21.8677H148.62C148.107 24.1505 147.024 25.944 145.37 27.2485C143.716 28.5529 141.678 29.2051 139.256 29.2051C137.346 29.2051 135.645 28.7974 134.155 27.9822C132.687 27.1669 131.534 26.0023 130.695 24.4882C129.88 22.9742 129.473 21.2039 129.473 19.1774Z" fill="#3300FF"/>
<path d="M162.053 9.21954C164.289 9.21954 166.083 9.96492 167.434 11.4557C168.785 12.9232 169.46 14.9497 169.46 17.5352V28.9256H163.52V18.3388C163.52 17.0344 163.183 16.0211 162.507 15.2991C161.832 14.577 160.923 14.2159 159.782 14.2159C158.64 14.2159 157.732 14.577 157.056 15.2991C156.381 16.0211 156.043 17.0344 156.043 18.3388V28.9256H150.068V3.07014H156.043V12.0497C156.649 11.1878 157.476 10.5007 158.524 9.98821C159.572 9.47576 160.748 9.21954 162.053 9.21954Z" fill="#3300FF"/>
</svg>
